<svg xmlns="http://www.w3.org/2000/svg" width="494" height="112"><defs><style>.cls-3,.cls-4,.cls-8{fill:#fff}.cls-3{font-size:14px}.cls-3,.cls-8{font-family:Montserrat-Light,Montserrat;font-weight:300}.cls-3{letter-spacing:.01em}.cls-8{font-size:16px}</style></defs><g id="组_54" data-name="组 54" transform="translate(-923 -946)"><text id="serverius" transform="translate(923 981)" font-size="36" font-family="Montserrat-Bold,Montserrat" font-weight="700" fill="#fff"><tspan x="0" y="0">SERVERIUS</tspan></text><text id="CONNECTIVITY_COLOCATION" data-name="CONNECTIVITY &amp; COLOCATION" transform="translate(923 1002)" font-size="15" font-family="Montserrat-Regular,Montserrat" letter-spacing=".02em" fill="#fff"><tspan x="0" y="0">CONNECTIVITY &amp; COLOCATION</tspan></text><text id="_2020_Serverius_B.V." data-name="2020 Serverius B.V." class="cls-3" transform="translate(937 1021.5)"><tspan x="0" y="0" fill="#fff">2020 Serverius B.V.</tspan></text><text id="All_rights_reserved._I_Privacy_Policy" data-name="All rights reserved. I Privacy Policy" class="cls-3" transform="translate(924 1045)"><tspan x="0" y="0" fill="#fff">All rights reserved. I Privacy Policy</tspan></text><g id="组_52" data-name="组 52" transform="translate(-5278.869 -1396.333)"><path id="路径_25" data-name="路径 25" class="cls-4" d="M179.241 95.347a.213.213 0 01.154.069l.4.441a3.249 3.249 0 01-1.132.84 3.87 3.87 0 01-1.6.3 3.776 3.776 0 01-1.49-.284 3.264 3.264 0 01-1.14-.8 3.594 3.594 0 01-.732-1.227 4.582 4.582 0 01-.26-1.575 4.307 4.307 0 01.278-1.574 3.6 3.6 0 01.782-1.23 3.5 3.5 0 011.206-.8 4.106 4.106 0 011.551-.284 3.461 3.461 0 012.524.966l-.334.471a.363.363 0 01-.085.087.233.233 0 01-.138.034.268.268 0 01-.146-.05q-.077-.05-.183-.125t-.249-.159a2.2 2.2 0 00-.339-.159 2.8 2.8 0 00-.456-.125 3.174 3.174 0 00-.6-.05 2.891 2.891 0 00-1.116.21 2.5 2.5 0 00-.872.6 2.714 2.714 0 00-.57.944 3.6 3.6 0 00-.2 1.247 3.669 3.669 0 00.2 1.268 2.8 2.8 0 00.557.942 2.346 2.346 0 00.835.586 2.668 2.668 0 001.039.2 4.217 4.217 0 00.61-.04 2.509 2.509 0 00.5-.125 2.116 2.116 0 00.429-.215 3.369 3.369 0 00.4-.31.269.269 0 01.177-.073z" transform="translate(6031.428 2319.63)"/><g id="椭圆_15" data-name="椭圆 15" transform="translate(6203.069 2407.333)" stroke="#fff" stroke-width=".8" fill="none"><circle cx="5.5" cy="5.5" r="5.5" stroke="none"/><circle cx="5.5" cy="5.5" r="5.1"/></g></g><path id="矩形_123" data-name="矩形 123" class="cls-4" transform="translate(1191 950)" fill="#fff" d="M0 0h2v108H0z"/><g id="组_53" data-name="组 53" transform="translate(703 5)"><text id="Contact" transform="translate(503 970)" fill="#f60" font-size="24" letter-spacing=".01em" font-family="Montserrat-Light,Montserrat" font-weight="300"><tspan x="0" y="0">Contact</tspan></text><text id="us" transform="translate(604 970)" font-size="22" letter-spacing=".01em" font-family="Montserrat-Light,Montserrat" font-weight="300" fill="#fff"><tspan x="0" y="0">us</tspan></text><text id="Support:_31_0_887378374" data-name="Support: +31(0)887378374" class="cls-8" transform="translate(505 994)"><tspan x="0" y="0" fill="#fff" font-weight="700">Support: +31(0)887378374</tspan></text><text id="support_serverius.net" data-name="support@serverius.net" class="cls-8" transform="translate(505 1016)"><tspan x="0" y="0" fill="#fff" font-weight="700">support@serverius.net</tspan></text></g><path id="路径_26" data-name="路径 26" class="cls-4" d="M50.157 14.273h3.172V4.758h-3.172zM51.747 0a1.637 1.637 0 00-1.685 1.586 1.688 1.688 0 003.37 0A1.637 1.637 0 0051.747 0m12.684 10.443V8.92a5.062 5.062 0 00-.569-2.507A3.047 3.047 0 0062.2 4.992a3.99 3.99 0 00-1.914-.2 2.839 2.839 0 00-1.731.843c-.182.19-.346.4-.53.612V5.59v-.476a.331.331 0 000-.059v-.078h-.089a.365.365 0 00-.047 0h-2.974v9.3h3.112V14.1 9.174a2.673 2.673 0 01.075-.748 1.7 1.7 0 011.51-1.226 1.41 1.41 0 011.526.967 3.513 3.513 0 01.169 1.209v4.882h.012v.01h3.112z" transform="translate(1160.076 1032.727)" fill="#fff"/><path id="路径_27" data-name="路径 27" class="cls-4" d="M13.729 4.314c.01.136.01.272.01.407a8.864 8.864 0 01-8.924 8.925A8.863 8.863 0 010 12.237a6.555 6.555 0 00.758.039 6.284 6.284 0 003.894-1.34 3.143 3.143 0 01-2.935-2.175 4 4 0 00.593.048 3.337 3.337 0 00.826-.109A3.136 3.136 0 01.62 5.624v-.039a3.165 3.165 0 001.417.4 3.141 3.141 0 01-.972-4.194 8.922 8.922 0 006.469 3.28 3.564 3.564 0 01-.078-.719 3.14 3.14 0 015.428-2.146 6.2 6.2 0 001.99-.758 3.13 3.13 0 01-1.374 1.73 6.287 6.287 0 001.8-.486 6.733 6.733 0 01-1.572 1.622z" transform="translate(1235.998 1034.203)" fill="#fff"/><path id="路径_28" data-name="路径 28" class="cls-4" d="M12.412 159.855l-5.858 3.376v-6.752l5.858 3.376zm5.461 3.177v-6.355a3.015 3.015 0 00-3.078-3.078H3.078A3.015 3.015 0 000 156.678v6.355a3.015 3.015 0 003.078 3.078H14.7a3.037 3.037 0 003.177-3.078" transform="translate(1262.413 881.819)" fill="#fff"/></g></svg>